<?xml version="1.0" encoding="utf-8"?>
<!-- Generator: Adobe Illustrator 16.0.0, SVG Export Plug-In . SVG Version: 6.00 Build 0)  -->
<!DOCTYPE svg PUBLIC "-//W3C//DTD SVG 1.1//EN" "http://www.w3.org/Graphics/SVG/1.1/DTD/svg11.dtd">
<svg version="1.1" id="レイヤー_1" xmlns="http://www.w3.org/2000/svg" xmlns:xlink="http://www.w3.org/1999/xlink" x="0px"
	 y="0px" width="1200px" height="630px" viewBox="0 0 1200 630" enable-background="new 0 0 1200 630" xml:space="preserve">
<rect x="0.641" y="-0.055" fill="#80BA5A" width="1200" height="630.001"/>
<g>
	<path fill="#608C44" d="M559.943,233.936c8.918,0,16.146,7.229,16.146,16.146c0,8.921-7.229,16.147-16.146,16.147
		c-8.916,0-16.148-7.227-16.148-16.147C543.795,241.164,551.027,233.936,559.943,233.936 M559.943,229.565
		c-11.313,0-20.521,9.204-20.521,20.516c0,11.314,9.206,20.519,20.521,20.519c11.313,0,20.518-9.204,20.518-20.519
		C580.461,238.77,571.257,229.565,559.943,229.565L559.943,229.565z"/>
	<path fill="#608C44" d="M559.943,216.542c18.524,0,33.538,15.022,33.538,33.546c0,18.52-15.014,33.535-33.538,33.535
		c-18.522,0-33.537-15.016-33.537-33.535C526.406,231.564,541.421,216.542,559.943,216.542 M559.943,212.173
		c-20.904,0-37.91,17.007-37.91,37.915c0,20.9,17.006,37.904,37.91,37.904c20.9,0,37.907-17.004,37.907-37.904
		C597.852,229.18,580.845,212.173,559.943,212.173L559.943,212.173z"/>
	<path fill="#608C44" d="M559.943,200.115c27.604,0,49.97,22.379,49.97,49.976c0,27.594-22.366,49.96-49.97,49.96
		c-27.596,0-49.968-22.366-49.968-49.96C509.977,222.494,532.349,200.115,559.943,200.115 M559.943,195.74
		c-29.963,0-54.338,24.383-54.338,54.351c0,29.958,24.375,54.331,54.338,54.331c29.965,0,54.339-24.373,54.339-54.331
		C614.282,220.123,589.908,195.74,559.943,195.74L559.943,195.74z"/>
	<path fill="#608C44" d="M559.943,184.309c36.33,0,65.767,29.461,65.767,65.782c0,36.323-29.437,65.763-65.767,65.763
		c-36.323,0-65.771-29.438-65.771-65.763C494.173,213.77,523.62,184.309,559.943,184.309 M559.943,179.938
		c-38.677,0-70.144,31.471-70.144,70.153c0,38.673,31.467,70.136,70.144,70.136c38.672,0,70.141-31.462,70.141-70.136
		C630.084,211.408,598.615,179.938,559.943,179.938L559.943,179.938z"/>
</g>
<g>
	<path fill="#608C44" d="M397.628,360.805c-3.441,1.504-7.127,2.861-11.049,4.072c-3.928,1.21-8.712,1.814-14.356,1.814
		c-8.391,0-14.615-2.041-18.674-6.121c-4.062-4.084-6.092-9.91-6.092-17.486v-49.471H332.94v-8.792h14.84v-24.438h26.133v24.438
		h22.668v8.792h-22.505v44.145c0,6.285,0.873,10.741,2.628,13.373c1.756,2.63,4.897,3.944,9.431,3.944
		c1.456,0,3.479-0.106,6.07-0.323c2.59-0.213,4.398-0.455,5.423-0.723V360.805z"/>
	<path fill="#608C44" d="M507.244,261.834c6.993,4.568,12.639,10.659,16.938,18.268c4.303,7.613,6.454,16.931,6.454,27.952
		c0,9.678-1.925,18.106-5.768,25.284c-3.848,7.18-8.938,13.055-15.285,17.625c-6.452,4.574-13.779,7.973-21.979,10.205
		c-8.201,2.231-16.791,3.346-25.771,3.346h-57.671v-6.289c1.72-0.057,3.869-0.217,6.449-0.483c2.585-0.271,4.304-0.591,5.167-0.969
		c1.933-0.81,3.276-1.897,4.03-3.269c0.753-1.371,1.13-3.022,1.13-4.96V267.4c0-1.828-0.351-3.482-1.048-4.96
		c-0.702-1.481-2.073-2.675-4.112-3.591c-2.046-0.912-4.21-1.532-6.496-1.856c-2.286-0.319-4.045-0.536-5.283-0.646v-6.291h60.9
		c6.504,0,13.47,0.837,20.89,2.502C493.212,254.223,500.362,257.317,507.244,261.834z M490.793,343.865
		c2.633-4.304,4.556-9.421,5.766-15.367c1.208-5.938,1.814-12.781,1.814-20.523c0-7.584-0.807-14.495-2.419-20.733
		c-1.614-6.235-3.98-11.561-7.099-15.969c-3.117-4.408-7.006-7.824-11.655-10.245c-4.653-2.42-9.936-3.628-15.851-3.628
		c-1.884,0-4.021,0.038-6.412,0.119c-2.396,0.08-4.183,0.149-5.365,0.202v86.873c0,1.932,0.258,3.646,0.768,5.121
		c0.514,1.479,1.383,2.782,2.62,3.911c1.239,1.127,2.756,2.006,4.562,2.621c1.801,0.621,4.152,0.93,7.057,0.93
		c6.073,0,11.29-1.131,15.648-3.393C484.581,351.529,488.104,348.221,490.793,343.865z"/>
	<path fill="#608C44" d="M592.021,364.514h-50.979v-5.888c1.399-0.108,2.772-0.242,4.115-0.401c1.343-0.165,2.502-0.434,3.469-0.808
		c1.718-0.646,2.932-1.573,3.63-2.783c0.696-1.213,1.05-2.81,1.05-4.802v-46.941c0-1.881-0.433-3.533-1.292-4.959
		c-0.859-1.426-1.933-2.57-3.228-3.432c-0.967-0.643-2.436-1.262-4.397-1.854c-1.961-0.589-3.747-0.969-5.359-1.133v-5.885
		l39.524-2.1l1.206,1.213v64.044c0,1.884,0.408,3.479,1.212,4.796c0.806,1.32,1.962,2.303,3.471,2.946
		c1.073,0.484,2.257,0.915,3.547,1.29c1.289,0.376,2.633,0.646,4.032,0.808V364.514L592.021,364.514z"/>
	<path fill="#608C44" d="M691.636,362.82c-2.359,1.021-5.15,1.962-8.371,2.824c-3.223,0.858-6.63,1.293-10.223,1.293
		c-6.601,0-11.46-0.986-14.57-2.946c-3.118-1.964-5.232-4.774-6.36-8.432h-0.483c-1.83,1.828-3.595,3.39-5.29,4.682
		c-1.696,1.292-3.516,2.392-5.454,3.307c-2.532,1.18-4.968,2.067-7.312,2.661c-2.34,0.588-5.614,0.887-9.814,0.887
		c-6.25,0-11.582-1.846-15.995-5.53c-4.419-3.691-6.626-8.578-6.626-14.665c0-3.499,0.486-6.477,1.457-8.927
		c0.963-2.447,2.342-4.615,4.113-6.503c1.623-1.724,3.492-3.147,5.619-4.285c2.125-1.128,4.455-2.178,6.986-3.146
		c4.851-1.778,10.664-3.62,17.452-5.533c6.783-1.91,11.739-3.622,14.863-5.128v-7.746c0-1.342-0.104-3.117-0.322-5.321
		c-0.216-2.204-0.671-4.06-1.371-5.565c-0.752-1.723-1.938-3.173-3.553-4.355c-1.606-1.184-3.739-1.776-6.373-1.776
		c-2.364,0-4.342,0.338-5.93,1.009c-1.588,0.674-2.869,1.361-3.834,2.057c0.163,1.075,0.619,2.717,1.379,4.92
		c0.751,2.205,1.132,4.331,1.132,6.375c0,0.912-0.243,2.056-0.729,3.425c-0.486,1.37-1.188,2.46-2.105,3.267
		c-1.238,1.077-2.624,1.91-4.166,2.5c-1.537,0.596-3.893,0.887-7.072,0.887c-4.53,0-7.957-1.088-10.275-3.264
		c-2.318-2.179-3.479-5.014-3.479-8.511c0-3.011,1.195-5.712,3.591-8.104c2.391-2.393,5.311-4.37,8.752-5.932
		c3.389-1.611,7.287-2.862,11.695-3.75c4.408-0.885,8.495-1.326,12.258-1.326c5.216,0,10,0.306,14.358,0.925
		c4.355,0.618,8.283,1.894,11.778,3.831c3.335,1.882,5.979,4.611,7.943,8.186c1.961,3.579,2.945,8.24,2.945,13.997
		c0,6.075-0.123,13.279-0.361,21.613c-0.244,8.339-0.362,13.824-0.362,16.457c0,2.419,0.362,4.329,1.083,5.729
		c0.727,1.396,1.846,2.442,3.353,3.145c0.909,0.434,2.349,0.684,4.312,0.769c1.962,0.078,3.747,0.121,5.364,0.121v5.881H691.636z
		 M651.627,320.797c-3.021,1.023-6.015,2.195-8.985,3.519c-2.966,1.322-5.396,2.711-7.281,4.163
		c-1.998,1.512-3.565,3.437-4.695,5.779c-1.137,2.344-1.7,5.108-1.7,8.29c0,4.2,0.956,7.25,2.874,9.134
		c1.916,1.889,4.271,2.83,7.082,2.83c2.966,0,5.412-0.606,7.324-1.816c1.918-1.214,3.604-2.707,5.061-4.49L651.627,320.797z"/>
	<path fill="#608C44" d="M778.185,299.262c0,4.084-1.265,7.674-3.792,10.766c-2.524,3.093-5.859,4.639-10.002,4.639
		c-3.928,0-7.248-0.99-9.962-2.971c-2.717-1.98-4.072-4.897-4.072-8.756c0-1.873,0.135-3.332,0.403-4.377
		c0.271-1.045,0.509-2.023,0.728-2.934c-2.477,0.107-5.084,0.961-7.825,2.562c-2.74,1.598-5.161,3.73-7.262,6.393v44.281
		c0,1.883,0.295,3.44,0.889,4.678c0.593,1.239,1.588,2.209,2.984,2.904c1.186,0.594,3.105,1.092,5.767,1.493
		c2.663,0.404,4.589,0.634,5.769,0.686v5.888h-53.96v-5.888c1.346-0.108,2.701-0.255,4.071-0.444
		c1.376-0.187,2.541-0.44,3.511-0.765c1.72-0.592,2.901-1.508,3.546-2.743c0.646-1.238,0.971-2.85,0.971-4.842v-46.941
		c0-1.936-0.458-3.67-1.37-5.205c-0.914-1.53-2.016-2.753-3.312-3.669c-0.967-0.644-2.191-1.18-3.669-1.613
		c-1.478-0.431-3.104-0.726-4.876-0.89v-5.885l38.474-2.1l1.207,1.213v11.695h0.324c3.71-4.304,7.65-7.676,11.816-10.123
		c4.166-2.443,8.512-3.67,13.029-3.67c5,0,9.015,1.545,12.055,4.639C776.665,290.375,778.185,294.367,778.185,299.262z"/>
	<path fill="#608C44" d="M877.082,290.389c-2.424,0.375-4.771,1.289-7.061,2.74c-2.289,1.451-4.181,3.712-5.687,6.777
		c-4.624,9.785-9.384,20.205-14.281,31.258c-4.887,11.047-10.32,23-16.288,35.852c-3.335,7.206-6.562,12.958-9.68,17.263
		c-3.119,4.303-6.049,7.606-8.794,9.918c-2.578,2.15-5.135,3.712-7.661,4.68c-2.527,0.969-5.081,1.453-7.664,1.453
		c-5.108,0-9.232-1.426-12.38-4.275c-3.145-2.852-4.721-6.049-4.721-9.599c0-1.505,0.18-2.903,0.528-4.196
		c0.346-1.289,1.091-2.633,2.213-4.032c0.86-1.18,2.188-2.19,3.991-3.023c1.8-0.833,3.833-1.252,6.086-1.252
		c3.011,0,5.884,1.049,8.628,3.146c2.741,2.102,5.589,5.005,8.542,8.713c1.771-1.781,3.967-4.435,6.569-7.968
		c2.608-3.531,4.529-7.158,5.768-10.877c-6.397-13.434-12.067-25.078-17.012-34.941c-4.938-9.858-10.476-20.859-16.598-33.003
		c-1.346-2.582-3.151-4.584-5.409-6.01c-2.259-1.424-4.647-2.299-7.176-2.621v-5.89h49.362v5.889
		c-1.823,0.053-3.929,0.456-6.313,1.207c-2.387,0.754-3.583,1.726-3.583,2.904c0,0.433,0.082,0.904,0.244,1.413
		c0.158,0.511,0.457,1.249,0.884,2.214c1.827,3.752,4.422,8.967,7.778,15.646c3.358,6.679,7.265,14.494,11.727,23.449
		c3.321-7.612,6.156-14.17,8.49-19.667c2.335-5.493,4.603-10.895,6.805-16.203c0.537-1.343,0.846-2.401,0.928-3.181
		c0.08-0.777,0.117-1.303,0.117-1.574c0-0.969-0.47-1.814-1.406-2.54c-0.94-0.724-2.055-1.355-3.339-1.894
		c-1.346-0.538-2.63-0.94-3.864-1.212c-1.236-0.267-2.258-0.456-3.06-0.563V284.5h33.313v5.889H877.082z"/>
</g>
<g>
	<path fill="#C9E1B8" d="M393.26,356.433c-3.445,1.506-7.127,2.862-11.053,4.071c-3.928,1.212-8.713,1.816-14.355,1.816
		c-8.389,0-14.613-2.041-18.673-6.123c-4.062-4.083-6.091-9.908-6.091-17.485v-49.47h-14.52v-8.793h14.844v-24.438h26.131v24.438
		h22.668v8.793h-22.508v44.145c0,6.284,0.876,10.741,2.633,13.373c1.753,2.629,4.896,3.944,9.428,3.944
		c1.458,0,3.482-0.107,6.069-0.323c2.593-0.213,4.397-0.453,5.427-0.723V356.433z"/>
	<path fill="#C9E1B8" d="M502.875,257.463c6.99,4.568,12.638,10.658,16.94,18.268c4.3,7.612,6.45,16.929,6.45,27.951
		c0,9.678-1.923,18.107-5.767,25.285c-3.845,7.181-8.939,13.055-15.283,17.625c-6.454,4.574-13.778,7.976-21.981,10.205
		c-8.198,2.231-16.793,3.346-25.771,3.346h-57.673v-6.289c1.72-0.057,3.871-0.217,6.452-0.486c2.581-0.268,4.301-0.588,5.163-0.967
		c1.937-0.809,3.276-1.896,4.035-3.267c0.75-1.372,1.126-3.024,1.126-4.961v-81.145c0-1.827-0.352-3.481-1.046-4.96
		c-0.703-1.482-2.073-2.676-4.115-3.59c-2.045-0.914-4.209-1.532-6.493-1.858c-2.285-0.319-4.047-0.534-5.283-0.645v-6.292h60.898
		c6.506,0,13.469,0.838,20.893,2.504C488.841,249.852,495.991,252.946,502.875,257.463z M486.42,339.492
		c2.635-4.301,4.561-9.42,5.77-15.363c1.208-5.939,1.813-12.785,1.813-20.525c0-7.583-0.808-14.496-2.422-20.735
		c-1.612-6.235-3.978-11.56-7.094-15.968c-3.12-4.408-7.007-7.824-11.659-10.245c-4.651-2.421-9.934-3.628-15.848-3.628
		c-1.884,0-4.021,0.037-6.416,0.118c-2.392,0.081-4.179,0.149-5.361,0.202v86.874c0,1.932,0.256,3.645,0.765,5.12
		c0.514,1.48,1.386,2.783,2.623,3.912c1.236,1.127,2.757,2.006,4.559,2.621c1.801,0.62,4.152,0.93,7.057,0.93
		c6.076,0,11.294-1.132,15.65-3.393C480.21,347.158,483.73,343.852,486.42,339.492z"/>
	<path fill="#C9E1B8" d="M587.649,360.143h-50.979v-5.888c1.398-0.107,2.769-0.242,4.114-0.401c1.344-0.165,2.501-0.436,3.47-0.809
		c1.719-0.646,2.929-1.573,3.63-2.784c0.696-1.211,1.05-2.808,1.05-4.798v-46.941c0-1.883-0.432-3.535-1.295-4.961
		c-0.856-1.427-1.935-2.57-3.225-3.434c-0.968-0.642-2.437-1.26-4.397-1.851c-1.962-0.59-3.749-0.97-5.362-1.132v-5.888
		l39.526-2.099l1.204,1.212v64.046c0,1.882,0.407,3.479,1.212,4.797c0.809,1.318,1.962,2.3,3.473,2.944
		c1.073,0.484,2.256,0.915,3.545,1.29s2.634,0.646,4.033,0.808L587.649,360.143L587.649,360.143z"/>
	<path fill="#C9E1B8" d="M687.269,358.449c-2.362,1.021-5.157,1.963-8.375,2.825c-3.219,0.857-6.626,1.292-10.22,1.292
		c-6.604,0-11.458-0.984-14.574-2.946c-3.11-1.964-5.229-4.775-6.36-8.433h-0.479c-1.835,1.829-3.598,3.391-5.292,4.682
		c-1.698,1.291-3.519,2.393-5.457,3.306c-2.529,1.183-4.963,2.069-7.308,2.663c-2.344,0.588-5.613,0.885-9.818,0.885
		c-6.246,0-11.577-1.843-15.996-5.528c-4.412-3.691-6.625-8.578-6.625-14.666c0-3.499,0.486-6.476,1.455-8.925
		c0.97-2.448,2.345-4.616,4.119-6.504c1.619-1.723,3.489-3.147,5.613-4.284c2.131-1.128,4.458-2.181,6.989-3.148
		c4.85-1.777,10.669-3.618,17.452-5.531c6.786-1.911,11.742-3.623,14.866-5.129v-7.746c0-1.343-0.11-3.117-0.329-5.322
		c-0.212-2.204-0.67-4.06-1.365-5.566c-0.755-1.721-1.938-3.171-3.552-4.354c-1.613-1.184-3.737-1.777-6.372-1.777
		c-2.369,0-4.347,0.337-5.935,1.01c-1.589,0.674-2.865,1.36-3.83,2.057c0.163,1.075,0.619,2.717,1.375,4.919
		c0.752,2.208,1.132,4.332,1.132,6.374c0,0.914-0.242,2.058-0.726,3.427c-0.486,1.369-1.188,2.46-2.105,3.267
		c-1.239,1.076-2.63,1.91-4.166,2.5c-1.538,0.595-3.896,0.887-7.077,0.887c-4.528,0-7.957-1.088-10.275-3.264
		c-2.319-2.179-3.479-5.016-3.479-8.511c0-3.011,1.195-5.713,3.595-8.105c2.391-2.392,5.307-4.369,8.748-5.932
		c3.39-1.611,7.285-2.862,11.694-3.75c4.411-0.885,8.496-1.327,12.261-1.327c5.219,0,10.004,0.308,14.357,0.925
		c4.354,0.62,8.282,1.897,11.777,3.833c3.333,1.882,5.98,4.611,7.944,8.186c1.964,3.579,2.944,8.24,2.944,13.996
		c0,6.076-0.123,13.28-0.364,21.613c-0.241,8.338-0.361,13.823-0.361,16.458c0,2.419,0.361,4.329,1.09,5.729
		c0.726,1.397,1.844,2.442,3.346,3.144c0.915,0.435,2.354,0.684,4.316,0.77c1.964,0.078,3.749,0.121,5.365,0.121v5.882H687.269z
		 M647.26,316.424c-3.021,1.026-6.019,2.196-8.983,3.521c-2.973,1.32-5.396,2.708-7.288,4.162c-1.993,1.511-3.561,3.436-4.692,5.778
		c-1.139,2.345-1.703,5.107-1.703,8.29c0,4.2,0.961,7.248,2.873,9.133c1.918,1.888,4.278,2.831,7.087,2.831
		c2.968,0,5.41-0.606,7.326-1.815c1.912-1.215,3.599-2.709,5.053-4.491L647.26,316.424z"/>
	<path fill="#C9E1B8" d="M773.812,294.891c0,4.084-1.26,7.676-3.79,10.764c-2.528,3.094-5.862,4.64-9.999,4.64
		c-3.929,0-7.248-0.989-9.963-2.97c-2.72-1.982-4.073-4.898-4.073-8.756c0-1.875,0.134-3.332,0.4-4.377
		c0.27-1.045,0.514-2.023,0.728-2.932c-2.478,0.105-5.08,0.959-7.821,2.561c-2.746,1.597-5.166,3.729-7.261,6.392v44.283
		c0,1.882,0.293,3.439,0.888,4.675c0.594,1.242,1.584,2.209,2.983,2.906c1.183,0.594,3.106,1.091,5.768,1.493
		c2.66,0.404,4.585,0.633,5.768,0.686v5.888h-53.963v-5.888c1.345-0.107,2.702-0.255,4.072-0.446
		c1.375-0.186,2.54-0.441,3.514-0.764c1.717-0.591,2.902-1.507,3.548-2.741c0.645-1.238,0.965-2.851,0.965-4.841v-46.941
		c0-1.939-0.458-3.671-1.37-5.207c-0.914-1.53-2.017-2.753-3.308-3.668c-0.967-0.646-2.191-1.182-3.668-1.614
		c-1.481-0.431-3.108-0.726-4.88-0.888v-5.888l38.476-2.099l1.209,1.212v11.696h0.324c3.71-4.303,7.649-7.676,11.812-10.124
		c4.171-2.443,8.513-3.669,13.028-3.669c5.005,0,9.021,1.545,12.061,4.638C772.293,286.004,773.812,289.996,773.812,294.891z"/>
	<path fill="#C9E1B8" d="M872.711,286.018c-2.42,0.375-4.771,1.289-7.057,2.74c-2.289,1.451-4.185,3.711-5.687,6.776
		c-4.629,9.788-9.383,20.206-14.28,31.257c-4.892,11.048-10.32,23.002-16.289,35.852c-3.334,7.208-6.562,12.96-9.684,17.263
		c-3.115,4.304-6.048,7.61-8.789,9.921c-2.582,2.149-5.14,3.71-7.663,4.678c-2.531,0.969-5.084,1.454-7.662,1.454
		c-5.108,0-9.237-1.426-12.381-4.275c-3.145-2.852-4.721-6.05-4.721-9.599c0-1.505,0.176-2.903,0.525-4.197
		c0.348-1.288,1.088-2.634,2.215-4.03c0.862-1.183,2.188-2.193,3.993-3.025c1.796-0.831,3.826-1.251,6.082-1.251
		c3.01,0,5.887,1.049,8.628,3.146c2.739,2.103,5.587,5.003,8.541,8.715c1.775-1.782,3.968-4.438,6.573-7.969
		c2.604-3.53,4.525-7.155,5.766-10.877c-6.4-13.434-12.064-25.078-17.01-34.942c-4.943-9.857-10.477-20.859-16.601-33.002
		c-1.346-2.582-3.146-4.584-5.406-6.012c-2.262-1.422-4.65-2.297-7.178-2.619v-5.889h49.364v5.889
		c-1.828,0.053-3.932,0.456-6.318,1.207c-2.386,0.754-3.581,1.726-3.581,2.902c0,0.435,0.081,0.906,0.242,1.413
		c0.159,0.513,0.457,1.253,0.889,2.216c1.827,3.754,4.419,8.967,7.773,15.646c3.358,6.676,7.266,14.491,11.728,23.448
		c3.325-7.613,6.161-14.17,8.49-19.667c2.34-5.494,4.607-10.895,6.805-16.204c0.539-1.341,0.847-2.4,0.932-3.18
		c0.076-0.779,0.119-1.303,0.119-1.575c0-0.966-0.471-1.813-1.407-2.54c-0.944-0.723-2.056-1.355-3.345-1.893
		c-1.34-0.539-2.628-0.941-3.862-1.213c-1.233-0.266-2.254-0.455-3.056-0.562v-5.889h33.31L872.711,286.018L872.711,286.018z"/>
	<circle fill="#C9E1B8" cx="559.943" cy="250.081" r="16.148"/>
</g>
</svg>
